<?xml version="1.0" encoding="UTF-8"?>
<svg id="Layer_2" xmlns="http://www.w3.org/2000/svg" viewBox="0 0 324.96 291.03">
  <defs>
    <style>
      .cls-1 {
        fill: #db812e;
      }

      .cls-1, .cls-2 {
        fill-rule: evenodd;
      }

      .cls-2 {
        fill: #272525;
      }
    </style>
  </defs>
  <g id="Layer_1-2" data-name="Layer_1">
    <g>
      <path class="cls-1" d="M19.01,242.71c.44-4.2,1.05-16.75,12.7-16.75,10.31,0,10.78,10.6,10.78,16.75h-23.48ZM56.1,271.59l-1.66-1.21c-2.11,0-8.24,4.93-19,4.93-14.06,0-16.47-10.32-16.47-18.7h40.26c2.84,0,3.45-.91,3.45-3.72,0-18.12-4.48-40.88-29.94-40.88-20.05,0-32.75,16.47-32.75,40.28,0,27.51,13.75,38.74,33.5,38.74,11.81,0,26.78-4.94,26.78-8.85l-.45-1.62-3.72-8.97Z"/>
      <path class="cls-2" d="M128.66,281.59l.43,1.49c0,3.59-12.12,7.95-21.09,7.95-20.78,0-33.2-12.72-33.2-38s12.72-41.02,34.86-41.02c8.07,0,21.25,4.52,21.25,9.14l-.46,1.36-5.53,9.72-1.06.73c-1.49,0-6.44-5.97-14.21-5.97-10.18,0-14.67,7.77-14.67,24.99s3.89,24.07,15.42,24.07c7.61,0,10.61-5.07,13.31-5.07l1.05.74,3.89,9.87Z"/>
      <path class="cls-2" d="M176.69,271.43c-1.79,1.81-5.69,5.67-11.23,5.67s-9.89-4.36-9.89-10.19c0-13.18,17.37-11.97,21.12-11.97v16.48ZM197.17,285.81l1.37-1.39c0-2.99-3.9-4.91-3.9-19.44v-28.87c0-15.56-7.03-24.1-25.75-24.1-11.52,0-26.32,3.6-26.32,7.06l.43,1.78,3,9.11,1.48,1.5c1.97,0,10.17-4.47,18.56-4.47,9.44,0,10.63,4.35,10.63,11.06v4.64c-11.82,0-39.05,0-39.05,25.28,0,14.06,8.67,23.05,22.42,23.05,11.24,0,16.48-5.99,19.47-8.99.75,3.76,2.98,8.99,4.33,8.99l1.96-.6,11.36-4.63Z"/>
      <path class="cls-2" d="M233.82,286.39c0,1.65-.26,2.09-2.1,2.09h-14.8c-1.79,0-2.09-.44-2.09-2.09v-45.18c0-16.47-3.87-19.16-3.87-22.61l1.34-1.35,11.36-4.64,1.96-.6c1.81,0,4.76,6.75,5.53,11.84,2.83-3.46,8.38-11.84,18.54-11.84,4.35,0,8.68,1.48,8.68,3.47l-.28,1.49-4.64,12.55-1.19,1.33c-.91,0-3.6-1.63-7.04-1.63-4.64,0-9.43,5.1-11.39,7.19v49.97Z"/>
      <path class="cls-2" d="M303.25,270.82c-1.78,1.92-4.36,5.23-11.04,5.23-9.76,0-12.57-7.19-12.57-24.07s2.22-24.99,13.44-24.99c6.29,0,8.83,2.23,10.17,2.97v40.86ZM323.59,285.81l1.37-1.39c0-2.99-2.7-4.91-2.7-19.44v-81.67c0-2.55-.32-3.15-1.51-3.15l-2.11.45-12.55,2.55c-1.81.45-2.85.45-2.85,2.69v30.69c-2.39-1.64-5.82-4.52-13.9-4.52-18.57,0-28.71,14.23-28.71,42.49,0,22.76,8.52,36.53,25.57,36.53,10.76,0,17.34-6.76,19.75-8.99.75,3.76,2.96,8.99,4.33,8.99l1.94-.6,11.37-4.63Z"/>
      <path class="cls-1" d="M212.54,75.71c-7.26,14.99-11.61,30.67-15.24,46.87-2.8,12.47,16.36,17.76,19.15,5.27,3.24-14.44,6.76-28.73,13.24-42.13,5.56-11.46-11.56-21.54-17.16-10.01Z"/>
      <path class="cls-1" d="M44.67,71.91c11.66,11.61,23.63,22.62,33.85,35.58,3.35,4.27,10.57,3.5,14.06,0,4.16-4.17,3.35-9.8,0-14.05-10.23-12.96-22.2-23.96-33.86-35.58-9.09-9.03-23.12,5.02-14.04,14.05Z"/>
      <path class="cls-1" d="M71.36,29.91c8.74,17.01,21.21,33.11,25.96,51.84,3.15,12.41,22.32,7.15,19.15-5.28-5.17-20.48-18.41-38.02-27.94-56.58-5.86-11.39-23.01-1.35-17.16,10.02Z"/>
      <path class="cls-1" d="M112.1,11.89c7.69,18.78,7.86,39.52,11.91,59.19,2.58,12.53,21.76,7.22,19.16-5.29-4.05-19.66-4.23-40.41-11.92-59.18-4.8-11.69-24.01-6.59-19.15,5.28Z"/>
      <path class="cls-1" d="M156.52,12.74c.17,17.86,2.06,35.58,0,53.38-1.47,12.71,18.4,12.58,19.87,0,2.06-17.8.17-35.52,0-53.38-.13-12.8-20-12.83-19.87,0Z"/>
      <path class="cls-1" d="M158.47,135.8c21.12-8.19,13.41-31.1-6.15-35.24-24.38-5.15-34.35,23.55-26.58,41.92,8,18.91,35.23,20.29,49.25,8.85,15.55-12.68,21.54-35.99,8.78-52.68-28.82-37.71-86.62-8.54-92.26,32.18-2.78,19.97,9.17,43.52,28.91,50.32,24.02,8.27,51.46-2.95,71.14-16.83,8.34-5.86.39-19.68-8.03-13.75-20.47,14.4-54.12,28.84-71.64,3.19-13.54-19.84,1.98-43.82,20.44-53.21,20.16-10.23,51.97,5.66,39.52,30.22-4.76,9.32-15.26,15.35-25.17,10.28-6.96-3.56-9.35-9.73-7.67-17.17.96-4.3,4-7.39,8.52-7.83,1.18-.12,10.54,2.89,6.73,4.38-9.47,3.67-5.37,19.11,4.21,15.36Z"/>
    </g>
  </g>
</svg>